<svg width="208" height="44" viewBox="0 0 208 44" fill="none" xmlns="http://www.w3.org/2000/svg">
<rect width="208" height="44" rx="22" fill="#23DCEF"/>
<path d="M27 9C18.7163 9 12 15.7844 12 24.16C11.9922 27.8584 13.3325 31.4329 15.77 34.2144C15.8438 34.2956 15.9106 34.3769 15.9844 34.4513C16.575 35 16.7544 35 17.2231 35C17.6919 35 18 35 18.4688 34.445C20.5 32.04 23.625 31 27 31C30.375 31 33.5044 32.0444 35.5313 34.445C36 35 36.3013 35 36.7769 35C37.2525 35 37.4831 35 38.0156 34.4513C38.0919 34.3731 38.1563 34.2956 38.23 34.2144C40.6676 31.4329 42.0078 27.8584 42 24.16C42 15.7844 35.2838 9 27 9ZM26 13H28V17H26V13ZM20 25H16V23H20V25ZM21.3431 19.7575L18.515 16.9288L19.9288 15.515L22.7575 18.3431L21.3431 19.7575ZM28.4125 25.2125C28.291 25.3808 28.1433 25.5285 27.975 25.65C27.5686 25.9335 27.0669 26.0453 26.5786 25.9611C26.0903 25.8769 25.6549 25.6036 25.3669 25.2004C25.0789 24.7972 24.9616 24.2967 25.0403 23.8075C25.1191 23.3184 25.3875 22.88 25.7875 22.5875L31 20L28.4125 25.2125ZM31.2425 18.3431L34.0713 15.515L35.485 16.9288L32.6569 19.7575L31.2425 18.3431ZM38 25H34V23H38V25Z" fill="white"/>
<path d="M57.0215 16.2031H58.665L62.8574 26.6357L67.041 16.2031H68.6934L63.4902 29H62.207L57.0215 16.2031ZM56.4854 16.2031H57.9355L58.1729 24.0078V29H56.4854V16.2031ZM67.7705 16.2031H69.2207V29H67.5332V24.0078L67.7705 16.2031ZM75.526 28.0156L78.1715 19.4902H79.9117L76.0973 30.4678C76.0094 30.7021 75.8922 30.9541 75.7457 31.2236C75.6051 31.499 75.4234 31.7598 75.2008 32.0059C74.9781 32.252 74.7086 32.4512 74.3922 32.6035C74.0816 32.7617 73.7096 32.8408 73.276 32.8408C73.1471 32.8408 72.983 32.8232 72.7838 32.7881C72.5846 32.7529 72.4439 32.7236 72.3619 32.7002L72.3531 31.3818C72.4 31.3877 72.4732 31.3936 72.5729 31.3994C72.6783 31.4111 72.7516 31.417 72.7926 31.417C73.1617 31.417 73.4752 31.3672 73.733 31.2676C73.9908 31.1738 74.2076 31.0127 74.3834 30.7842C74.565 30.5615 74.7203 30.2539 74.8492 29.8613L75.526 28.0156ZM73.5836 19.4902L76.0533 26.873L76.4752 28.5869L75.3062 29.1846L71.8082 19.4902H73.5836ZM91.3533 29H88.6814L88.699 27.6201H91.3533C92.2674 27.6201 93.0291 27.4297 93.6385 27.0488C94.2479 26.6621 94.7049 26.123 95.0096 25.4316C95.3201 24.7344 95.4754 23.9199 95.4754 22.9883V22.2061C95.4754 21.4736 95.3875 20.8232 95.2117 20.2549C95.0359 19.6807 94.7781 19.1973 94.4383 18.8047C94.0984 18.4062 93.6824 18.1045 93.1902 17.8994C92.7039 17.6943 92.1443 17.5918 91.5115 17.5918H88.6287V16.2031H91.5115C92.3494 16.2031 93.1141 16.3438 93.8055 16.625C94.4969 16.9004 95.0916 17.3018 95.5896 17.8291C96.0936 18.3506 96.4803 18.9834 96.7498 19.7275C97.0193 20.4658 97.1541 21.2979 97.1541 22.2236V22.9883C97.1541 23.9141 97.0193 24.749 96.7498 25.4932C96.4803 26.2314 96.0906 26.8613 95.5809 27.3828C95.077 27.9043 94.4676 28.3057 93.7527 28.5869C93.0438 28.8623 92.2439 29 91.3533 29ZM89.5867 16.2031V29H87.8904V16.2031H89.5867ZM105.964 27.374V22.4785C105.964 22.1035 105.888 21.7783 105.736 21.5029C105.589 21.2217 105.367 21.0049 105.068 20.8525C104.769 20.7002 104.4 20.624 103.96 20.624C103.55 20.624 103.19 20.6943 102.879 20.835C102.575 20.9756 102.334 21.1602 102.159 21.3887C101.989 21.6172 101.904 21.8633 101.904 22.127H100.278C100.278 21.7871 100.366 21.4502 100.541 21.1162C100.717 20.7822 100.969 20.4805 101.297 20.2109C101.631 19.9355 102.03 19.7188 102.493 19.5605C102.961 19.3965 103.483 19.3145 104.057 19.3145C104.748 19.3145 105.358 19.4316 105.885 19.666C106.418 19.9004 106.834 20.2549 107.133 20.7295C107.438 21.1982 107.59 21.7871 107.59 22.4961V26.9258C107.59 27.2422 107.617 27.5791 107.669 27.9365C107.728 28.2939 107.813 28.6016 107.924 28.8594V29H106.228C106.146 28.8125 106.081 28.5635 106.035 28.2529C105.988 27.9365 105.964 27.6436 105.964 27.374ZM106.246 23.2344L106.263 24.377H104.62C104.157 24.377 103.744 24.415 103.38 24.4912C103.017 24.5615 102.712 24.6699 102.466 24.8164C102.22 24.9629 102.033 25.1475 101.904 25.3701C101.775 25.5869 101.71 25.8418 101.71 26.1348C101.71 26.4336 101.778 26.7061 101.912 26.9521C102.047 27.1982 102.249 27.3945 102.519 27.541C102.794 27.6816 103.131 27.752 103.53 27.752C104.028 27.752 104.467 27.6465 104.848 27.4355C105.229 27.2246 105.531 26.9668 105.753 26.6621C105.982 26.3574 106.105 26.0615 106.122 25.7744L106.817 26.5566C106.776 26.8027 106.664 27.0752 106.483 27.374C106.301 27.6729 106.058 27.96 105.753 28.2354C105.454 28.5049 105.097 28.7305 104.681 28.9121C104.271 29.0879 103.808 29.1758 103.292 29.1758C102.648 29.1758 102.082 29.0498 101.596 28.7979C101.116 28.5459 100.741 28.209 100.471 27.7871C100.207 27.3594 100.076 26.8818 100.076 26.3545C100.076 25.8447 100.175 25.3965 100.374 25.0098C100.574 24.6172 100.861 24.292 101.236 24.0342C101.611 23.7705 102.062 23.5713 102.589 23.4365C103.117 23.3018 103.705 23.2344 104.356 23.2344H106.246ZM116.585 26.4775C116.585 26.2432 116.532 26.0264 116.427 25.8271C116.327 25.6221 116.119 25.4375 115.803 25.2734C115.492 25.1035 115.023 24.957 114.396 24.834C113.869 24.7227 113.392 24.5908 112.964 24.4385C112.542 24.2861 112.182 24.1016 111.883 23.8848C111.59 23.668 111.364 23.4131 111.206 23.1201C111.048 22.8271 110.969 22.4844 110.969 22.0918C110.969 21.7168 111.051 21.3623 111.215 21.0283C111.385 20.6943 111.622 20.3984 111.927 20.1406C112.237 19.8828 112.609 19.6807 113.043 19.5342C113.477 19.3877 113.96 19.3145 114.493 19.3145C115.255 19.3145 115.905 19.4492 116.444 19.7188C116.983 19.9883 117.396 20.3486 117.684 20.7998C117.971 21.2451 118.114 21.7402 118.114 22.2852H116.488C116.488 22.0215 116.409 21.7666 116.251 21.5205C116.099 21.2686 115.873 21.0605 115.574 20.8965C115.281 20.7324 114.921 20.6504 114.493 20.6504C114.042 20.6504 113.676 20.7207 113.395 20.8613C113.119 20.9961 112.917 21.1689 112.788 21.3799C112.665 21.5908 112.604 21.8135 112.604 22.0479C112.604 22.2236 112.633 22.3818 112.691 22.5225C112.756 22.6572 112.867 22.7832 113.025 22.9004C113.184 23.0117 113.406 23.1172 113.693 23.2168C113.98 23.3164 114.347 23.416 114.792 23.5156C115.571 23.6914 116.213 23.9023 116.717 24.1484C117.221 24.3945 117.596 24.6963 117.842 25.0537C118.088 25.4111 118.211 25.8447 118.211 26.3545C118.211 26.7705 118.123 27.1514 117.947 27.4971C117.777 27.8428 117.528 28.1416 117.2 28.3936C116.878 28.6396 116.491 28.833 116.04 28.9736C115.595 29.1084 115.094 29.1758 114.537 29.1758C113.699 29.1758 112.99 29.0264 112.41 28.7275C111.83 28.4287 111.391 28.042 111.092 27.5674C110.793 27.0928 110.644 26.5918 110.644 26.0645H112.278C112.302 26.5098 112.431 26.8643 112.665 27.1279C112.899 27.3857 113.187 27.5703 113.526 27.6816C113.866 27.7871 114.203 27.8398 114.537 27.8398C114.982 27.8398 115.354 27.7812 115.653 27.6641C115.958 27.5469 116.189 27.3857 116.348 27.1807C116.506 26.9756 116.585 26.7412 116.585 26.4775ZM122.873 15.5V29H121.247V15.5H122.873ZM122.486 23.8848L121.809 23.8584C121.815 23.208 121.912 22.6074 122.099 22.0566C122.287 21.5 122.55 21.0166 122.89 20.6064C123.23 20.1963 123.634 19.8799 124.103 19.6572C124.578 19.4287 125.102 19.3145 125.676 19.3145C126.145 19.3145 126.567 19.3789 126.942 19.5078C127.317 19.6309 127.636 19.8301 127.9 20.1055C128.17 20.3809 128.375 20.7383 128.515 21.1777C128.656 21.6113 128.726 22.1416 128.726 22.7686V29H127.091V22.751C127.091 22.2529 127.018 21.8545 126.872 21.5557C126.725 21.251 126.511 21.0312 126.23 20.8965C125.949 20.7559 125.603 20.6855 125.193 20.6855C124.789 20.6855 124.42 20.7705 124.086 20.9404C123.757 21.1104 123.473 21.3447 123.233 21.6436C122.999 21.9424 122.814 22.2852 122.679 22.6719C122.55 23.0527 122.486 23.457 122.486 23.8848ZM132.052 15.5H133.687V27.1543L133.546 29H132.052V15.5ZM140.112 24.166V24.3506C140.112 25.042 140.029 25.6836 139.865 26.2754C139.701 26.8613 139.461 27.3711 139.145 27.8047C138.828 28.2383 138.442 28.5752 137.985 28.8154C137.528 29.0557 137.003 29.1758 136.411 29.1758C135.808 29.1758 135.278 29.0732 134.821 28.8682C134.369 28.6572 133.988 28.3555 133.678 27.9629C133.367 27.5703 133.118 27.0957 132.931 26.5391C132.749 25.9824 132.623 25.3555 132.553 24.6582V23.8496C132.623 23.1465 132.749 22.5166 132.931 21.96C133.118 21.4033 133.367 20.9287 133.678 20.5361C133.988 20.1377 134.369 19.8359 134.821 19.6309C135.272 19.4199 135.796 19.3145 136.394 19.3145C136.991 19.3145 137.522 19.4316 137.985 19.666C138.447 19.8945 138.834 20.2227 139.145 20.6504C139.461 21.0781 139.701 21.5908 139.865 22.1885C140.029 22.7803 140.112 23.4395 140.112 24.166ZM138.477 24.3506V24.166C138.477 23.6914 138.433 23.2461 138.345 22.8301C138.257 22.4082 138.116 22.0391 137.923 21.7227C137.73 21.4004 137.475 21.1484 137.158 20.9668C136.842 20.7793 136.452 20.6855 135.989 20.6855C135.579 20.6855 135.222 20.7559 134.917 20.8965C134.618 21.0371 134.363 21.2275 134.153 21.4678C133.942 21.7021 133.769 21.9717 133.634 22.2764C133.505 22.5752 133.408 22.8857 133.344 23.208V25.3262C133.438 25.7363 133.59 26.1318 133.801 26.5127C134.018 26.8877 134.305 27.1953 134.662 27.4355C135.026 27.6758 135.474 27.7959 136.007 27.7959C136.446 27.7959 136.821 27.708 137.132 27.5322C137.448 27.3506 137.703 27.1016 137.897 26.7852C138.096 26.4688 138.242 26.1025 138.336 25.6865C138.43 25.2705 138.477 24.8252 138.477 24.3506ZM142.637 24.3506V24.1484C142.637 23.4629 142.737 22.8271 142.936 22.2412C143.136 21.6494 143.423 21.1367 143.798 20.7031C144.173 20.2637 144.627 19.9238 145.16 19.6836C145.693 19.4375 146.291 19.3145 146.953 19.3145C147.621 19.3145 148.221 19.4375 148.755 19.6836C149.294 19.9238 149.751 20.2637 150.126 20.7031C150.507 21.1367 150.797 21.6494 150.996 22.2412C151.195 22.8271 151.295 23.4629 151.295 24.1484V24.3506C151.295 25.0361 151.195 25.6719 150.996 26.2578C150.797 26.8438 150.507 27.3564 150.126 27.7959C149.751 28.2295 149.297 28.5693 148.763 28.8154C148.236 29.0557 147.638 29.1758 146.971 29.1758C146.303 29.1758 145.702 29.0557 145.169 28.8154C144.636 28.5693 144.179 28.2295 143.798 27.7959C143.423 27.3564 143.136 26.8438 142.936 26.2578C142.737 25.6719 142.637 25.0361 142.637 24.3506ZM144.263 24.1484V24.3506C144.263 24.8252 144.319 25.2734 144.43 25.6953C144.542 26.1113 144.709 26.4805 144.931 26.8027C145.16 27.125 145.444 27.3799 145.784 27.5674C146.124 27.749 146.519 27.8398 146.971 27.8398C147.416 27.8398 147.805 27.749 148.139 27.5674C148.479 27.3799 148.761 27.125 148.983 26.8027C149.206 26.4805 149.373 26.1113 149.484 25.6953C149.601 25.2734 149.66 24.8252 149.66 24.3506V24.1484C149.66 23.6797 149.601 23.2373 149.484 22.8213C149.373 22.3994 149.203 22.0273 148.974 21.7051C148.752 21.377 148.471 21.1191 148.131 20.9316C147.797 20.7441 147.404 20.6504 146.953 20.6504C146.508 20.6504 146.115 20.7441 145.775 20.9316C145.441 21.1191 145.16 21.377 144.931 21.7051C144.709 22.0273 144.542 22.3994 144.43 22.8213C144.319 23.2373 144.263 23.6797 144.263 24.1484ZM159.841 27.374V22.4785C159.841 22.1035 159.765 21.7783 159.613 21.5029C159.466 21.2217 159.244 21.0049 158.945 20.8525C158.646 20.7002 158.277 20.624 157.837 20.624C157.427 20.624 157.067 20.6943 156.756 20.835C156.452 20.9756 156.211 21.1602 156.036 21.3887C155.866 21.6172 155.781 21.8633 155.781 22.127H154.155C154.155 21.7871 154.243 21.4502 154.418 21.1162C154.594 20.7822 154.846 20.4805 155.174 20.2109C155.508 19.9355 155.907 19.7188 156.37 19.5605C156.838 19.3965 157.36 19.3145 157.934 19.3145C158.625 19.3145 159.235 19.4316 159.762 19.666C160.295 19.9004 160.711 20.2549 161.01 20.7295C161.315 21.1982 161.467 21.7871 161.467 22.4961V26.9258C161.467 27.2422 161.494 27.5791 161.546 27.9365C161.605 28.2939 161.69 28.6016 161.801 28.8594V29H160.105C160.023 28.8125 159.958 28.5635 159.912 28.2529C159.865 27.9365 159.841 27.6436 159.841 27.374ZM160.122 23.2344L160.14 24.377H158.496C158.034 24.377 157.621 24.415 157.257 24.4912C156.894 24.5615 156.589 24.6699 156.343 24.8164C156.097 24.9629 155.91 25.1475 155.781 25.3701C155.652 25.5869 155.587 25.8418 155.587 26.1348C155.587 26.4336 155.655 26.7061 155.789 26.9521C155.924 27.1982 156.126 27.3945 156.396 27.541C156.671 27.6816 157.008 27.752 157.407 27.752C157.905 27.752 158.344 27.6465 158.725 27.4355C159.106 27.2246 159.408 26.9668 159.63 26.6621C159.859 26.3574 159.982 26.0615 159.999 25.7744L160.694 26.5566C160.653 26.8027 160.541 27.0752 160.36 27.374C160.178 27.6729 159.935 27.96 159.63 28.2354C159.331 28.5049 158.974 28.7305 158.558 28.9121C158.148 29.0879 157.685 29.1758 157.169 29.1758C156.525 29.1758 155.959 29.0498 155.473 28.7979C154.993 28.5459 154.618 28.209 154.348 27.7871C154.084 27.3594 153.953 26.8818 153.953 26.3545C153.953 25.8447 154.052 25.3965 154.251 25.0098C154.451 24.6172 154.738 24.292 155.113 24.0342C155.488 23.7705 155.939 23.5713 156.466 23.4365C156.994 23.3018 157.582 23.2344 158.233 23.2344H160.122ZM166.551 20.9844V29H164.925V19.4902H166.507L166.551 20.9844ZM169.521 19.4375L169.513 20.9492C169.378 20.9199 169.249 20.9023 169.126 20.8965C169.009 20.8848 168.874 20.8789 168.722 20.8789C168.347 20.8789 168.016 20.9375 167.729 21.0547C167.441 21.1719 167.198 21.3359 166.999 21.5469C166.8 21.7578 166.642 22.0098 166.524 22.3027C166.413 22.5898 166.34 22.9062 166.305 23.252L165.848 23.5156C165.848 22.9414 165.903 22.4023 166.015 21.8984C166.132 21.3945 166.311 20.9492 166.551 20.5625C166.791 20.1699 167.096 19.8652 167.465 19.6484C167.84 19.4258 168.285 19.3145 168.801 19.3145C168.918 19.3145 169.053 19.3291 169.205 19.3584C169.357 19.3818 169.463 19.4082 169.521 19.4375ZM177.743 27.1543V15.5H179.378V29H177.883L177.743 27.1543ZM171.344 24.3506V24.166C171.344 23.4395 171.432 22.7803 171.608 22.1885C171.79 21.5908 172.045 21.0781 172.373 20.6504C172.707 20.2227 173.102 19.8945 173.559 19.666C174.022 19.4316 174.538 19.3145 175.106 19.3145C175.704 19.3145 176.225 19.4199 176.671 19.6309C177.122 19.8359 177.503 20.1377 177.813 20.5361C178.129 20.9287 178.379 21.4033 178.56 21.96C178.742 22.5166 178.868 23.1465 178.938 23.8496V24.6582C178.874 25.3555 178.748 25.9824 178.56 26.5391C178.379 27.0957 178.129 27.5703 177.813 27.9629C177.503 28.3555 177.122 28.6572 176.671 28.8682C176.219 29.0732 175.692 29.1758 175.088 29.1758C174.532 29.1758 174.022 29.0557 173.559 28.8154C173.102 28.5752 172.707 28.2383 172.373 27.8047C172.045 27.3711 171.79 26.8613 171.608 26.2754C171.432 25.6836 171.344 25.042 171.344 24.3506ZM172.979 24.166V24.3506C172.979 24.8252 173.026 25.2705 173.12 25.6865C173.219 26.1025 173.372 26.4688 173.577 26.7852C173.782 27.1016 174.043 27.3506 174.359 27.5322C174.675 27.708 175.053 27.7959 175.493 27.7959C176.032 27.7959 176.474 27.6816 176.82 27.4531C177.171 27.2246 177.453 26.9229 177.664 26.5479C177.875 26.1729 178.039 25.7656 178.156 25.3262V23.208C178.086 22.8857 177.983 22.5752 177.848 22.2764C177.719 21.9717 177.549 21.7021 177.338 21.4678C177.133 21.2275 176.879 21.0371 176.574 20.8965C176.275 20.7559 175.921 20.6855 175.51 20.6855C175.065 20.6855 174.681 20.7793 174.359 20.9668C174.043 21.1484 173.782 21.4004 173.577 21.7227C173.372 22.0391 173.219 22.4082 173.12 22.8301C173.026 23.2461 172.979 23.6914 172.979 24.166Z" fill="white"/>
</svg>
