<svg width="193" height="66" viewBox="0 0 193 66" fill="none" xmlns="http://www.w3.org/2000/svg">
<path fill-rule="evenodd" clip-rule="evenodd" d="M57.5972 55C51.5546 61.7512 42.7735 66 33 66C14.7746 66 0 51.2254 0 33C0 14.7746 14.7746 0 33 0C42.7735 0 51.5546 4.24876 57.5972 11H171C183.15 11 193 20.8497 193 33C193 45.1503 183.15 55 171 55H57.5972Z" fill="#23DCEF"/>
<path d="M32.0001 8.875C18.539 8.875 7.62506 19.8996 7.62506 33.51C7.61231 39.5199 9.79029 45.3285 13.7513 49.8484C13.8711 49.9804 13.9798 50.1124 14.0997 50.2333C15.0594 51.125 15.3509 51.125 16.1126 51.125C16.8744 51.125 17.3751 51.125 18.1368 50.2231C21.4376 46.315 26.5157 44.625 32.0001 44.625C37.4844 44.625 42.5697 46.3221 45.8633 50.2231C46.6251 51.125 47.1146 51.125 47.8875 51.125C48.6604 51.125 49.0351 51.125 49.9004 50.2333C50.0244 50.1063 50.129 49.9804 50.2488 49.8484C54.2098 45.3285 56.3878 39.5199 56.3751 33.51C56.3751 19.8996 45.4611 8.875 32.0001 8.875ZM30.3751 15.375H33.6251V21.875H30.3751V15.375ZM20.6251 34.875H14.1251V31.625H20.6251V34.875ZM22.8076 26.3559L18.2119 21.7592L20.5093 19.4619L25.106 24.0576L22.8076 26.3559ZM34.2954 35.2203C34.098 35.4938 33.858 35.7339 33.5844 35.9312C32.9241 36.3919 32.1087 36.5736 31.3153 36.4368C30.5218 36.3 29.8143 35.8558 29.3463 35.2007C28.8783 34.5455 28.6876 33.7322 28.8156 32.9372C28.9435 32.1423 29.3798 31.4299 30.0297 30.9547L38.5001 26.75L34.2954 35.2203ZM38.8941 24.0576L43.4908 19.4619L45.7882 21.7592L41.1925 26.3559L38.8941 24.0576ZM49.8751 34.875H43.3751V31.625H49.8751V34.875Z" fill="white"/>
<path d="M74.7031 40H71.5488L71.5684 37.3633H74.7031C75.3542 37.3633 75.9043 37.207 76.3535 36.8945C76.8092 36.582 77.1543 36.1165 77.3887 35.498C77.6296 34.873 77.75 34.1048 77.75 33.1934V32.5781C77.75 31.8945 77.6816 31.2956 77.5449 30.7812C77.4147 30.2604 77.2194 29.8275 76.959 29.4824C76.6986 29.1309 76.373 28.8672 75.9824 28.6914C75.5983 28.5156 75.1556 28.4277 74.6543 28.4277H71.4902V25.7812H74.6543C75.6178 25.7812 76.5 25.9473 77.3008 26.2793C78.1081 26.6048 78.8047 27.0736 79.3906 27.6855C79.9831 28.291 80.4388 29.0104 80.7578 29.8438C81.0833 30.6706 81.2461 31.5885 81.2461 32.5977V33.1934C81.2461 34.196 81.0833 35.1139 80.7578 35.9473C80.4388 36.7806 79.9863 37.5 79.4004 38.1055C78.8145 38.7109 78.1211 39.1797 77.3203 39.5117C76.526 39.8372 75.6536 40 74.7031 40ZM73.5117 25.7812V40H70.084V25.7812H73.5117ZM89.3652 37.3438V32.9883C89.3652 32.6888 89.3229 32.4316 89.2383 32.2168C89.1536 32.002 89.0202 31.8359 88.8379 31.7188C88.6556 31.5951 88.4115 31.5332 88.1055 31.5332C87.8581 31.5332 87.6465 31.5755 87.4707 31.6602C87.2949 31.7448 87.1615 31.8717 87.0703 32.041C86.9792 32.2103 86.9336 32.4251 86.9336 32.6855H83.6426C83.6426 32.1973 83.75 31.7448 83.9648 31.3281C84.1862 30.9049 84.4987 30.5371 84.9023 30.2246C85.3125 29.9121 85.8008 29.6712 86.3672 29.502C86.9401 29.3262 87.5781 29.2383 88.2812 29.2383C89.1211 29.2383 89.8698 29.3783 90.5273 29.6582C91.1914 29.9382 91.7155 30.3581 92.0996 30.918C92.4837 31.4714 92.6758 32.168 92.6758 33.0078V37.334C92.6758 38.0241 92.7148 38.5482 92.793 38.9062C92.8711 39.2578 92.9818 39.5671 93.125 39.834V40H89.8242C89.668 39.6745 89.5508 39.2773 89.4727 38.8086C89.401 38.3333 89.3652 37.8451 89.3652 37.3438ZM89.7656 33.5449L89.7852 35.3027H88.3301C88.0241 35.3027 87.7637 35.3451 87.5488 35.4297C87.3405 35.5143 87.1712 35.6315 87.041 35.7812C86.9173 35.9245 86.8262 36.0872 86.7676 36.2695C86.7155 36.4518 86.6895 36.6439 86.6895 36.8457C86.6895 37.041 86.735 37.2168 86.8262 37.373C86.9238 37.5228 87.054 37.64 87.2168 37.7246C87.3796 37.8092 87.5618 37.8516 87.7637 37.8516C88.1283 37.8516 88.4375 37.7832 88.6914 37.6465C88.9518 37.5033 89.1504 37.3307 89.2871 37.1289C89.4238 36.9271 89.4922 36.7383 89.4922 36.5625L90.2148 37.9102C90.0846 38.1706 89.9349 38.4342 89.7656 38.7012C89.6029 38.9681 89.3978 39.2155 89.1504 39.4434C88.9095 39.6647 88.6133 39.847 88.2617 39.9902C87.9102 40.127 87.4837 40.1953 86.9824 40.1953C86.3314 40.1953 85.7324 40.0618 85.1855 39.7949C84.6452 39.528 84.2122 39.1569 83.8867 38.6816C83.5612 38.1999 83.3984 37.6465 83.3984 37.0215C83.3984 36.4746 83.4961 35.9863 83.6914 35.5566C83.8932 35.127 84.196 34.7624 84.5996 34.4629C85.0033 34.1634 85.5176 33.9355 86.1426 33.7793C86.7676 33.623 87.5033 33.5449 88.3496 33.5449H89.7656ZM101.039 37.0312C101.039 36.849 100.977 36.6927 100.854 36.5625C100.736 36.4258 100.528 36.3021 100.229 36.1914C99.929 36.0742 99.5091 35.957 98.9688 35.8398C98.4544 35.7292 97.9694 35.5827 97.5137 35.4004C97.0645 35.2181 96.6706 34.9967 96.332 34.7363C95.9935 34.4759 95.7266 34.1667 95.5312 33.8086C95.3424 33.4505 95.248 33.0404 95.248 32.5781C95.248 32.1289 95.3424 31.7057 95.5312 31.3086C95.7266 30.9049 96.0098 30.5501 96.3809 30.2441C96.7585 29.9316 97.2174 29.6875 97.7578 29.5117C98.2982 29.3294 98.9134 29.2383 99.6035 29.2383C100.554 29.2383 101.374 29.3848 102.064 29.6777C102.755 29.9642 103.285 30.3678 103.656 30.8887C104.034 31.403 104.223 31.9987 104.223 32.6758H100.932C100.932 32.4089 100.886 32.181 100.795 31.9922C100.71 31.8034 100.57 31.6602 100.375 31.5625C100.18 31.4583 99.9193 31.4062 99.5938 31.4062C99.3659 31.4062 99.1576 31.4486 98.9688 31.5332C98.7865 31.6178 98.64 31.735 98.5293 31.8848C98.4186 32.0345 98.3633 32.2103 98.3633 32.4121C98.3633 32.5553 98.3958 32.6855 98.4609 32.8027C98.5326 32.9134 98.64 33.0176 98.7832 33.1152C98.9264 33.2064 99.1087 33.291 99.3301 33.3691C99.5514 33.4408 99.8184 33.5059 100.131 33.5645C100.84 33.6947 101.505 33.8802 102.123 34.1211C102.742 34.362 103.243 34.7038 103.627 35.1465C104.018 35.5892 104.213 36.1849 104.213 36.9336C104.213 37.4023 104.105 37.8353 103.891 38.2324C103.676 38.623 103.367 38.9681 102.963 39.2676C102.559 39.5605 102.074 39.7884 101.508 39.9512C100.941 40.1139 100.303 40.1953 99.5938 40.1953C98.5846 40.1953 97.7318 40.0163 97.0352 39.6582C96.3385 39.2936 95.8112 38.8379 95.4531 38.291C95.1016 37.7376 94.9258 37.1777 94.9258 36.6113H97.9922C98.0052 36.9368 98.0833 37.2038 98.2266 37.4121C98.3763 37.6204 98.5749 37.7734 98.8223 37.8711C99.0697 37.9688 99.3561 38.0176 99.6816 38.0176C99.9811 38.0176 100.229 37.9753 100.424 37.8906C100.626 37.806 100.779 37.6921 100.883 37.5488C100.987 37.3991 101.039 37.2266 101.039 37.0312ZM109.979 25V40H106.688V25H109.979ZM109.588 34.3555L108.816 34.375C108.816 33.6328 108.908 32.9492 109.09 32.3242C109.272 31.6992 109.533 31.1556 109.871 30.6934C110.21 30.2311 110.617 29.873 111.092 29.6191C111.567 29.3652 112.094 29.2383 112.674 29.2383C113.195 29.2383 113.67 29.3132 114.1 29.4629C114.536 29.6126 114.91 29.8535 115.223 30.1855C115.542 30.5176 115.786 30.9505 115.955 31.4844C116.131 32.0182 116.219 32.6693 116.219 33.4375V40H112.908V33.418C112.908 32.9883 112.846 32.6562 112.723 32.4219C112.605 32.181 112.436 32.015 112.215 31.9238C111.993 31.8262 111.723 31.7773 111.404 31.7773C111.02 31.7773 110.708 31.8424 110.467 31.9727C110.226 32.1029 110.04 32.2852 109.91 32.5195C109.786 32.7474 109.702 33.0176 109.656 33.3301C109.611 33.6426 109.588 33.9844 109.588 34.3555ZM119.074 25H122.365V37.4023L122.023 40H119.074V25ZM128.85 34.5996V34.8047C128.85 35.6055 128.768 36.3346 128.605 36.9922C128.443 37.6497 128.192 38.2194 127.854 38.7012C127.515 39.1764 127.089 39.5443 126.574 39.8047C126.06 40.0651 125.451 40.1953 124.748 40.1953C124.11 40.1953 123.563 40.0586 123.107 39.7852C122.652 39.5052 122.271 39.1211 121.965 38.6328C121.659 38.138 121.411 37.5684 121.223 36.9238C121.034 36.2728 120.884 35.5762 120.773 34.834V34.5898C120.884 33.8542 121.034 33.1641 121.223 32.5195C121.411 31.8685 121.659 31.2988 121.965 30.8105C122.271 30.3158 122.648 29.9316 123.098 29.6582C123.553 29.3783 124.097 29.2383 124.729 29.2383C125.438 29.2383 126.05 29.3717 126.564 29.6387C127.085 29.9056 127.515 30.2799 127.854 30.7617C128.192 31.2435 128.443 31.8099 128.605 32.4609C128.768 33.112 128.85 33.8249 128.85 34.5996ZM125.559 34.8047V34.5996C125.559 34.2155 125.536 33.8542 125.49 33.5156C125.445 33.1771 125.363 32.8776 125.246 32.6172C125.129 32.3568 124.963 32.1517 124.748 32.002C124.533 31.8522 124.253 31.7773 123.908 31.7773C123.557 31.7773 123.26 31.8359 123.02 31.9531C122.785 32.0703 122.596 32.2396 122.453 32.4609C122.316 32.6758 122.219 32.9427 122.16 33.2617C122.102 33.5742 122.076 33.929 122.082 34.3262V35.0977C122.069 35.638 122.118 36.1003 122.229 36.4844C122.339 36.8685 122.531 37.1615 122.805 37.3633C123.078 37.5651 123.452 37.666 123.928 37.666C124.279 37.666 124.562 37.5977 124.777 37.4609C124.999 37.3242 125.165 37.1289 125.275 36.875C125.386 36.6211 125.461 36.3184 125.5 35.9668C125.539 35.6152 125.559 35.2279 125.559 34.8047ZM130.904 34.8242V34.6191C130.904 33.8444 131.015 33.1315 131.236 32.4805C131.458 31.8229 131.783 31.2533 132.213 30.7715C132.643 30.2897 133.173 29.9154 133.805 29.6484C134.436 29.375 135.165 29.2383 135.992 29.2383C136.826 29.2383 137.558 29.375 138.189 29.6484C138.827 29.9154 139.361 30.2897 139.791 30.7715C140.221 31.2533 140.546 31.8229 140.768 32.4805C140.989 33.1315 141.1 33.8444 141.1 34.6191V34.8242C141.1 35.5924 140.989 36.3053 140.768 36.9629C140.546 37.6139 140.221 38.1836 139.791 38.6719C139.361 39.1536 138.831 39.528 138.199 39.7949C137.568 40.0618 136.839 40.1953 136.012 40.1953C135.185 40.1953 134.452 40.0618 133.814 39.7949C133.176 39.528 132.643 39.1536 132.213 38.6719C131.783 38.1836 131.458 37.6139 131.236 36.9629C131.015 36.3053 130.904 35.5924 130.904 34.8242ZM134.195 34.6191V34.8242C134.195 35.2214 134.225 35.5924 134.283 35.9375C134.342 36.2826 134.439 36.5853 134.576 36.8457C134.713 37.0996 134.898 37.2982 135.133 37.4414C135.367 37.5846 135.66 37.6562 136.012 37.6562C136.357 37.6562 136.643 37.5846 136.871 37.4414C137.105 37.2982 137.291 37.0996 137.428 36.8457C137.564 36.5853 137.662 36.2826 137.721 35.9375C137.779 35.5924 137.809 35.2214 137.809 34.8242V34.6191C137.809 34.235 137.779 33.8737 137.721 33.5352C137.662 33.1901 137.564 32.8874 137.428 32.627C137.291 32.36 137.105 32.1517 136.871 32.002C136.637 31.8522 136.344 31.7773 135.992 31.7773C135.647 31.7773 135.357 31.8522 135.123 32.002C134.895 32.1517 134.713 32.36 134.576 32.627C134.439 32.8874 134.342 33.1901 134.283 33.5352C134.225 33.8737 134.195 34.235 134.195 34.6191ZM149.053 37.3438V32.9883C149.053 32.6888 149.01 32.4316 148.926 32.2168C148.841 32.002 148.708 31.8359 148.525 31.7188C148.343 31.5951 148.099 31.5332 147.793 31.5332C147.546 31.5332 147.334 31.5755 147.158 31.6602C146.982 31.7448 146.849 31.8717 146.758 32.041C146.667 32.2103 146.621 32.4251 146.621 32.6855H143.33C143.33 32.1973 143.438 31.7448 143.652 31.3281C143.874 30.9049 144.186 30.5371 144.59 30.2246C145 29.9121 145.488 29.6712 146.055 29.502C146.628 29.3262 147.266 29.2383 147.969 29.2383C148.809 29.2383 149.557 29.3783 150.215 29.6582C150.879 29.9382 151.403 30.3581 151.787 30.918C152.171 31.4714 152.363 32.168 152.363 33.0078V37.334C152.363 38.0241 152.402 38.5482 152.48 38.9062C152.559 39.2578 152.669 39.5671 152.812 39.834V40H149.512C149.355 39.6745 149.238 39.2773 149.16 38.8086C149.089 38.3333 149.053 37.8451 149.053 37.3438ZM149.453 33.5449L149.473 35.3027H148.018C147.712 35.3027 147.451 35.3451 147.236 35.4297C147.028 35.5143 146.859 35.6315 146.729 35.7812C146.605 35.9245 146.514 36.0872 146.455 36.2695C146.403 36.4518 146.377 36.6439 146.377 36.8457C146.377 37.041 146.423 37.2168 146.514 37.373C146.611 37.5228 146.742 37.64 146.904 37.7246C147.067 37.8092 147.249 37.8516 147.451 37.8516C147.816 37.8516 148.125 37.7832 148.379 37.6465C148.639 37.5033 148.838 37.3307 148.975 37.1289C149.111 36.9271 149.18 36.7383 149.18 36.5625L149.902 37.9102C149.772 38.1706 149.622 38.4342 149.453 38.7012C149.29 38.9681 149.085 39.2155 148.838 39.4434C148.597 39.6647 148.301 39.847 147.949 39.9902C147.598 40.127 147.171 40.1953 146.67 40.1953C146.019 40.1953 145.42 40.0618 144.873 39.7949C144.333 39.528 143.9 39.1569 143.574 38.6816C143.249 38.1999 143.086 37.6465 143.086 37.0215C143.086 36.4746 143.184 35.9863 143.379 35.5566C143.581 35.127 143.883 34.7624 144.287 34.4629C144.691 34.1634 145.205 33.9355 145.83 33.7793C146.455 33.623 147.191 33.5449 148.037 33.5449H149.453ZM158.51 32.0508V40H155.219V29.4336H158.295L158.51 32.0508ZM161.635 29.3555L161.576 32.4121C161.446 32.3991 161.27 32.3828 161.049 32.3633C160.827 32.3438 160.642 32.334 160.492 32.334C160.108 32.334 159.776 32.3796 159.496 32.4707C159.223 32.5553 158.995 32.6855 158.812 32.8613C158.637 33.0306 158.507 33.2454 158.422 33.5059C158.344 33.7663 158.308 34.069 158.314 34.4141L157.719 34.0234C157.719 33.3138 157.787 32.6693 157.924 32.0898C158.067 31.5039 158.269 30.9993 158.529 30.5762C158.79 30.1465 159.105 29.8177 159.477 29.5898C159.848 29.3555 160.264 29.2383 160.727 29.2383C160.889 29.2383 161.049 29.248 161.205 29.2676C161.368 29.2871 161.511 29.3164 161.635 29.3555ZM169.646 37.5781V25H172.957V40H169.988L169.646 37.5781ZM163.162 34.8438V34.6387C163.162 33.8379 163.25 33.1087 163.426 32.4512C163.602 31.7871 163.862 31.2174 164.207 30.7422C164.552 30.2604 164.982 29.8893 165.496 29.6289C166.01 29.3685 166.603 29.2383 167.273 29.2383C167.872 29.2383 168.396 29.3783 168.846 29.6582C169.295 29.9316 169.679 30.3158 169.998 30.8105C170.317 31.3053 170.577 31.8848 170.779 32.5488C170.981 33.2064 171.134 33.916 171.238 34.6777V34.9219C171.134 35.638 170.981 36.3151 170.779 36.9531C170.577 37.5846 170.317 38.1445 169.998 38.6328C169.679 39.1211 169.292 39.5052 168.836 39.7852C168.387 40.0586 167.859 40.1953 167.254 40.1953C166.583 40.1953 165.991 40.0618 165.477 39.7949C164.969 39.528 164.542 39.1536 164.197 38.6719C163.859 38.1901 163.602 37.6237 163.426 36.9727C163.25 36.3216 163.162 35.612 163.162 34.8438ZM166.453 34.6387V34.8438C166.453 35.2409 166.479 35.6087 166.531 35.9473C166.583 36.2858 166.671 36.5853 166.795 36.8457C166.925 37.0996 167.094 37.2982 167.303 37.4414C167.518 37.5846 167.781 37.6562 168.094 37.6562C168.517 37.6562 168.865 37.5553 169.139 37.3535C169.419 37.1517 169.624 36.8652 169.754 36.4941C169.891 36.123 169.949 35.6868 169.93 35.1855V34.4141C169.943 33.9844 169.913 33.6068 169.842 33.2812C169.77 32.9492 169.656 32.6725 169.5 32.4512C169.35 32.2298 169.158 32.0638 168.924 31.9531C168.696 31.8359 168.426 31.7773 168.113 31.7773C167.807 31.7773 167.547 31.849 167.332 31.9922C167.124 32.1354 166.954 32.3372 166.824 32.5977C166.694 32.8516 166.6 33.1543 166.541 33.5059C166.482 33.8509 166.453 34.2285 166.453 34.6387Z" fill="white"/>
</svg>
