<svg width="208" height="45" viewBox="0 0 208 45" fill="none" xmlns="http://www.w3.org/2000/svg">
<rect x="1" y="1" width="206" height="43" rx="21" stroke="#23DCEF" stroke-width="2"/>
<path d="M79.2773 25.1855V16.2031H80.3584V25.1855C80.3584 26.0469 80.1885 26.7734 79.8486 27.3652C79.5146 27.957 79.0576 28.4082 78.4775 28.7188C77.8975 29.0234 77.2354 29.1758 76.4912 29.1758C75.7295 29.1758 75.0557 29.041 74.4697 28.7715C73.8896 28.502 73.4385 28.0947 73.1162 27.5498C72.7939 26.999 72.6328 26.3047 72.6328 25.4668H73.7139C73.7139 26.082 73.8223 26.5977 74.0391 27.0137C74.2617 27.4238 74.5811 27.7344 74.9971 27.9453C75.4131 28.1504 75.9111 28.2529 76.4912 28.2529C77.0127 28.2529 77.4814 28.1387 77.8975 27.9102C78.3193 27.6758 78.6533 27.333 78.8994 26.8818C79.1514 26.4248 79.2773 25.8594 79.2773 25.1855ZM82.7139 24.3945V24.1045C82.7139 23.4131 82.8135 22.7744 83.0127 22.1885C83.2119 21.6025 83.4961 21.0957 83.8652 20.668C84.2402 20.2402 84.6885 19.9092 85.21 19.6748C85.7314 19.4346 86.3115 19.3145 86.9502 19.3145C87.5947 19.3145 88.1777 19.4346 88.6992 19.6748C89.2207 19.9092 89.6689 20.2402 90.0439 20.668C90.4189 21.0957 90.7061 21.6025 90.9053 22.1885C91.1045 22.7744 91.2041 23.4131 91.2041 24.1045V24.3945C91.2041 25.0859 91.1045 25.7246 90.9053 26.3105C90.7061 26.8906 90.4189 27.3945 90.0439 27.8223C89.6748 28.25 89.2295 28.584 88.708 28.8242C88.1865 29.0586 87.6064 29.1758 86.9678 29.1758C86.3232 29.1758 85.7402 29.0586 85.2188 28.8242C84.6973 28.584 84.249 28.25 83.874 27.8223C83.499 27.3945 83.2119 26.8906 83.0127 26.3105C82.8135 25.7246 82.7139 25.0859 82.7139 24.3945ZM83.7598 24.1045V24.3945C83.7598 24.916 83.8301 25.4111 83.9707 25.8799C84.1113 26.3428 84.3164 26.7559 84.5859 27.1191C84.8555 27.4766 85.1895 27.7578 85.5879 27.9629C85.9863 28.168 86.4463 28.2705 86.9678 28.2705C87.4834 28.2705 87.9375 28.168 88.3301 27.9629C88.7285 27.7578 89.0625 27.4766 89.332 27.1191C89.6016 26.7559 89.8037 26.3428 89.9385 25.8799C90.0791 25.4111 90.1494 24.916 90.1494 24.3945V24.1045C90.1494 23.5889 90.0791 23.0996 89.9385 22.6367C89.8037 22.1738 89.5986 21.7607 89.3232 21.3975C89.0537 21.0342 88.7197 20.7471 88.3213 20.5361C87.9229 20.3252 87.4658 20.2197 86.9502 20.2197C86.4346 20.2197 85.9775 20.3252 85.5791 20.5361C85.1865 20.7471 84.8525 21.0342 84.5771 21.3975C84.3076 21.7607 84.1025 22.1738 83.9619 22.6367C83.8271 23.0996 83.7598 23.5889 83.7598 24.1045ZM94.5527 19.4902V29H93.5068V19.4902H94.5527ZM93.3223 16.7393C93.3223 16.54 93.3838 16.373 93.5068 16.2383C93.6357 16.0977 93.8115 16.0273 94.0342 16.0273C94.2568 16.0273 94.4326 16.0977 94.5615 16.2383C94.6963 16.373 94.7637 16.54 94.7637 16.7393C94.7637 16.9326 94.6963 17.0996 94.5615 17.2402C94.4326 17.375 94.2568 17.4424 94.0342 17.4424C93.8115 17.4424 93.6357 17.375 93.5068 17.2402C93.3838 17.0996 93.3223 16.9326 93.3223 16.7393ZM98.4727 21.5205V29H97.4268V19.4902H98.4287L98.4727 21.5205ZM98.2354 23.6562L97.7695 23.3926C97.8047 22.8301 97.9189 22.3027 98.1123 21.8105C98.3057 21.3184 98.5664 20.8848 98.8945 20.5098C99.2285 20.1348 99.6182 19.8418 100.063 19.6309C100.515 19.4199 101.013 19.3145 101.558 19.3145C102.032 19.3145 102.457 19.3789 102.832 19.5078C103.207 19.6367 103.526 19.8418 103.79 20.123C104.054 20.4043 104.253 20.7646 104.388 21.2041C104.528 21.6436 104.599 22.1797 104.599 22.8125V29H103.544V22.8037C103.544 22.1475 103.453 21.6348 103.271 21.2656C103.09 20.8906 102.832 20.624 102.498 20.4658C102.164 20.3076 101.769 20.2285 101.312 20.2285C100.808 20.2285 100.365 20.3398 99.9844 20.5625C99.6094 20.7793 99.293 21.0635 99.0352 21.415C98.7832 21.7607 98.5898 22.1328 98.4551 22.5312C98.3203 22.9238 98.2471 23.2988 98.2354 23.6562ZM119.689 16.2031H120.771V24.8691C120.771 25.8301 120.568 26.6299 120.164 27.2686C119.76 27.9072 119.215 28.3848 118.529 28.7012C117.85 29.0176 117.097 29.1758 116.271 29.1758C115.421 29.1758 114.656 29.0176 113.977 28.7012C113.297 28.3848 112.758 27.9072 112.359 27.2686C111.967 26.6299 111.771 25.8301 111.771 24.8691V16.2031H112.843V24.8691C112.843 25.6133 112.989 26.2373 113.282 26.7412C113.575 27.2451 113.979 27.623 114.495 27.875C115.011 28.127 115.603 28.2529 116.271 28.2529C116.933 28.2529 117.521 28.127 118.037 27.875C118.553 27.623 118.957 27.2451 119.25 26.7412C119.543 26.2373 119.689 25.6133 119.689 24.8691V16.2031ZM129.261 26.5742C129.261 26.3164 129.196 26.0615 129.067 25.8096C128.938 25.5576 128.689 25.3262 128.32 25.1152C127.957 24.9043 127.421 24.7256 126.712 24.5791C126.185 24.4619 125.713 24.3301 125.297 24.1836C124.887 24.0371 124.541 23.8613 124.26 23.6562C123.979 23.4512 123.765 23.2051 123.618 22.918C123.472 22.6309 123.398 22.291 123.398 21.8984C123.398 21.5469 123.475 21.2158 123.627 20.9053C123.785 20.5889 124.008 20.3135 124.295 20.0791C124.588 19.8389 124.939 19.6514 125.35 19.5166C125.766 19.3818 126.231 19.3145 126.747 19.3145C127.479 19.3145 128.106 19.4404 128.628 19.6924C129.155 19.9385 129.557 20.2754 129.832 20.7031C130.113 21.1309 130.254 21.6143 130.254 22.1533H129.208C129.208 21.8252 129.111 21.5146 128.918 21.2217C128.73 20.9287 128.452 20.6885 128.083 20.501C127.72 20.3135 127.274 20.2197 126.747 20.2197C126.202 20.2197 125.76 20.3018 125.42 20.4658C125.08 20.6299 124.831 20.8379 124.673 21.0898C124.521 21.3418 124.444 21.6025 124.444 21.8721C124.444 22.083 124.477 22.2764 124.541 22.4521C124.611 22.6221 124.734 22.7803 124.91 22.9268C125.092 23.0732 125.35 23.2109 125.684 23.3398C126.018 23.4688 126.451 23.5947 126.984 23.7178C127.752 23.8877 128.379 24.0957 128.865 24.3418C129.357 24.582 129.721 24.8809 129.955 25.2383C130.189 25.5898 130.307 26.0176 130.307 26.5215C130.307 26.9141 130.225 27.2744 130.061 27.6025C129.896 27.9248 129.659 28.2031 129.349 28.4375C129.044 28.6719 128.675 28.8535 128.241 28.9824C127.813 29.1113 127.333 29.1758 126.8 29.1758C125.997 29.1758 125.317 29.0439 124.761 28.7803C124.21 28.5107 123.791 28.1592 123.504 27.7256C123.223 27.2861 123.082 26.8203 123.082 26.3281H124.128C124.163 26.8203 124.318 27.21 124.594 27.4971C124.869 27.7783 125.206 27.9775 125.604 28.0947C126.009 28.2119 126.407 28.2705 126.8 28.2705C127.339 28.2705 127.79 28.1914 128.153 28.0332C128.517 27.875 128.792 27.667 128.979 27.4092C129.167 27.1514 129.261 26.873 129.261 26.5742ZM133.866 16.2031L133.805 25.4316H132.838L132.776 16.2031H133.866ZM132.662 28.376C132.662 28.1768 132.724 28.0098 132.847 27.875C132.976 27.7344 133.154 27.6641 133.383 27.6641C133.605 27.6641 133.781 27.7344 133.91 27.875C134.045 28.0098 134.112 28.1768 134.112 28.376C134.112 28.5693 134.045 28.7363 133.91 28.877C133.781 29.0117 133.605 29.0791 133.383 29.0791C133.154 29.0791 132.976 29.0117 132.847 28.877C132.724 28.7363 132.662 28.5693 132.662 28.376Z" fill="white"/>
<path d="M30.5312 27.8281C31.2396 28.1823 31.8802 28.625 32.4531 29.1562C33.026 29.6875 33.5104 30.3021 33.9062 31H31.4531C30.8906 30.3646 30.224 29.875 29.4531 29.5312C28.6823 29.1875 27.8646 29.0104 27 29C26.1667 29 25.3906 29.1562 24.6719 29.4688C23.9531 29.7812 23.3177 30.2083 22.7656 30.75C22.2135 31.2917 21.7812 31.9323 21.4688 32.6719C21.1562 33.4115 21 34.1875 21 35H19C19 34.2396 19.1042 33.5052 19.3125 32.7969C19.5208 32.0885 19.8177 31.4167 20.2031 30.7812C20.5885 30.1458 21.0625 29.5833 21.625 29.0938C22.1875 28.6042 22.8021 28.1823 23.4688 27.8281C22.6875 27.2656 22.0833 26.5625 21.6562 25.7188C21.2292 24.875 21.0104 23.9688 21 23C21 22.4479 20.8958 21.9323 20.6875 21.4531C20.4792 20.974 20.1927 20.5469 19.8281 20.1719C19.4635 19.7969 19.0417 19.5104 18.5625 19.3125C18.0833 19.1146 17.5625 19.0104 17 19C16.4479 19 15.9323 19.1042 15.4531 19.3125C14.974 19.5208 14.5469 19.8073 14.1719 20.1719C13.7969 20.5365 13.5104 20.9583 13.3125 21.4375C13.1146 21.9167 13.0104 22.4375 13 23H11C11 22.4583 11.0729 21.9271 11.2188 21.4062C11.3646 20.8854 11.5677 20.401 11.8281 19.9531C12.0885 19.5052 12.4167 19.0885 12.8125 18.7031C13.2083 18.3177 13.6406 18 14.1094 17.75C13.7552 17.3854 13.4844 16.9635 13.2969 16.4844C13.1094 16.0052 13.0104 15.5104 13 15C13 14.4479 13.1042 13.9323 13.3125 13.4531C13.5208 12.974 13.8073 12.5469 14.1719 12.1719C14.5365 11.7969 14.9583 11.5104 15.4375 11.3125C15.9167 11.1146 16.4375 11.0104 17 11C17.5521 11 18.0677 11.1042 18.5469 11.3125C19.026 11.5208 19.4531 11.8073 19.8281 12.1719C20.2031 12.5365 20.4896 12.9583 20.6875 13.4375C20.8854 13.9167 20.9896 14.4375 21 15C21 15.5104 20.9062 16.0052 20.7188 16.4844C20.5312 16.9635 20.2552 17.3854 19.8906 17.75C20.3281 17.9896 20.7188 18.276 21.0625 18.6094C21.4062 18.9427 21.7188 19.3073 22 19.7031C22.2812 19.2865 22.6042 18.9115 22.9688 18.5781C23.3333 18.2448 23.7292 17.9635 24.1562 17.7344C24.5833 17.5052 25.0365 17.3229 25.5156 17.1875C25.9948 17.0521 26.4896 16.9896 27 17C27.5 17 27.9896 17.0625 28.4688 17.1875C28.9479 17.3125 29.401 17.4896 29.8281 17.7188C30.2552 17.9479 30.6562 18.2344 31.0312 18.5781C31.4062 18.9219 31.7292 19.2969 32 19.7031C32.2708 19.3073 32.5781 18.9427 32.9219 18.6094C33.2656 18.276 33.6615 17.9896 34.1094 17.75C33.7552 17.3854 33.4844 16.9635 33.2969 16.4844C33.1094 16.0052 33.0104 15.5104 33 15C33 14.4479 33.1042 13.9323 33.3125 13.4531C33.5208 12.974 33.8073 12.5469 34.1719 12.1719C34.5365 11.7969 34.9583 11.5104 35.4375 11.3125C35.9167 11.1146 36.4375 11.0104 37 11C37.5521 11 38.0677 11.1042 38.5469 11.3125C39.026 11.5208 39.4531 11.8073 39.8281 12.1719C40.2031 12.5365 40.4896 12.9583 40.6875 13.4375C40.8854 13.9167 40.9896 14.4375 41 15C41 15.5104 40.9062 16.0052 40.7188 16.4844C40.5312 16.9635 40.2552 17.3854 39.8906 17.75C40.3698 18.0104 40.8021 18.3281 41.1875 18.7031C41.5729 19.0781 41.8958 19.4896 42.1562 19.9375C42.4167 20.3854 42.625 20.875 42.7812 21.4062C42.9375 21.9375 43.0104 22.4688 43 23H41C41 22.4479 40.8958 21.9323 40.6875 21.4531C40.4792 20.974 40.1927 20.5469 39.8281 20.1719C39.4635 19.7969 39.0417 19.5104 38.5625 19.3125C38.0833 19.1146 37.5625 19.0104 37 19C36.4479 19 35.9323 19.1042 35.4531 19.3125C34.974 19.5208 34.5469 19.8073 34.1719 20.1719C33.7969 20.5365 33.5104 20.9583 33.3125 21.4375C33.1146 21.9167 33.0104 22.4375 33 23C33 23.9583 32.7865 24.8594 32.3594 25.7031C31.9323 26.5469 31.3229 27.2552 30.5312 27.8281ZM37 13C36.7188 13 36.4583 13.0521 36.2188 13.1562C35.9792 13.2604 35.7708 13.401 35.5938 13.5781C35.4167 13.7552 35.2708 13.9688 35.1562 14.2188C35.0417 14.4688 34.9896 14.7292 35 15C35 15.2812 35.0521 15.5417 35.1562 15.7812C35.2604 16.0208 35.401 16.2292 35.5781 16.4062C35.7552 16.5833 35.9688 16.7292 36.2188 16.8438C36.4688 16.9583 36.7292 17.0104 37 17C37.2812 17 37.5417 16.9479 37.7812 16.8438C38.0208 16.7396 38.2292 16.599 38.4062 16.4219C38.5833 16.2448 38.7292 16.0312 38.8438 15.7812C38.9583 15.5312 39.0104 15.2708 39 15C39 14.7188 38.9479 14.4583 38.8438 14.2188C38.7396 13.9792 38.599 13.7708 38.4219 13.5938C38.2448 13.4167 38.0312 13.2708 37.7812 13.1562C37.5312 13.0417 37.2708 12.9896 37 13ZM17 17C17.2812 17 17.5417 16.9479 17.7812 16.8438C18.0208 16.7396 18.2292 16.599 18.4062 16.4219C18.5833 16.2448 18.7292 16.0312 18.8438 15.7812C18.9583 15.5312 19.0104 15.2708 19 15C19 14.7188 18.9479 14.4583 18.8438 14.2188C18.7396 13.9792 18.599 13.7708 18.4219 13.5938C18.2448 13.4167 18.0312 13.2708 17.7812 13.1562C17.5312 13.0417 17.2708 12.9896 17 13C16.7188 13 16.4583 13.0521 16.2188 13.1562C15.9792 13.2604 15.7708 13.401 15.5938 13.5781C15.4167 13.7552 15.2708 13.9688 15.1562 14.2188C15.0417 14.4688 14.9896 14.7292 15 15C15 15.2812 15.0521 15.5417 15.1562 15.7812C15.2604 16.0208 15.401 16.2292 15.5781 16.4062C15.7552 16.5833 15.9688 16.7292 16.2188 16.8438C16.4688 16.9583 16.7292 17.0104 17 17ZM27 27C27.5521 27 28.0677 26.8958 28.5469 26.6875C29.026 26.4792 29.4531 26.1927 29.8281 25.8281C30.2031 25.4635 30.4896 25.0417 30.6875 24.5625C30.8854 24.0833 30.9896 23.5625 31 23C31 22.4479 30.8958 21.9323 30.6875 21.4531C30.4792 20.974 30.1927 20.5469 29.8281 20.1719C29.4635 19.7969 29.0417 19.5104 28.5625 19.3125C28.0833 19.1146 27.5625 19.0104 27 19C26.4479 19 25.9323 19.1042 25.4531 19.3125C24.974 19.5208 24.5469 19.8073 24.1719 20.1719C23.7969 20.5365 23.5104 20.9583 23.3125 21.4375C23.1146 21.9167 23.0104 22.4375 23 23C23 23.5521 23.1042 24.0677 23.3125 24.5469C23.5208 25.026 23.8073 25.4531 24.1719 25.8281C24.5365 26.2031 24.9583 26.4896 25.4375 26.6875C25.9167 26.8854 26.4375 26.9896 27 27ZM39 33H43V35H39V39H37V35H33V33H37V29H39V33Z" fill="white"/>
</svg>
