<svg width="32" height="32" viewBox="0 0 32 32" fill="none" xmlns="http://www.w3.org/2000/svg">
<path d="M19.5312 20.8281C20.2396 21.1823 20.8802 21.625 21.4531 22.1562C22.026 22.6875 22.5104 23.3021 22.9062 24H20.4531C19.8906 23.3646 19.224 22.875 18.4531 22.5312C17.6823 22.1875 16.8646 22.0104 16 22C15.1667 22 14.3906 22.1562 13.6719 22.4688C12.9531 22.7812 12.3177 23.2083 11.7656 23.75C11.2135 24.2917 10.7812 24.9323 10.4688 25.6719C10.1562 26.4115 10 27.1875 10 28H8C8 27.2396 8.10417 26.5052 8.3125 25.7969C8.52083 25.0885 8.81771 24.4167 9.20312 23.7812C9.58854 23.1458 10.0625 22.5833 10.625 22.0938C11.1875 21.6042 11.8021 21.1823 12.4688 20.8281C11.6875 20.2656 11.0833 19.5625 10.6562 18.7188C10.2292 17.875 10.0104 16.9688 10 16C10 15.4479 9.89583 14.9323 9.6875 14.4531C9.47917 13.974 9.19271 13.5469 8.82812 13.1719C8.46354 12.7969 8.04167 12.5104 7.5625 12.3125C7.08333 12.1146 6.5625 12.0104 6 12C5.44792 12 4.93229 12.1042 4.45312 12.3125C3.97396 12.5208 3.54688 12.8073 3.17188 13.1719C2.79688 13.5365 2.51042 13.9583 2.3125 14.4375C2.11458 14.9167 2.01042 15.4375 2 16H0C0 15.4583 0.0729167 14.9271 0.21875 14.4062C0.364583 13.8854 0.567708 13.401 0.828125 12.9531C1.08854 12.5052 1.41667 12.0885 1.8125 11.7031C2.20833 11.3177 2.64062 11 3.10938 10.75C2.75521 10.3854 2.48438 9.96354 2.29688 9.48438C2.10938 9.00521 2.01042 8.51042 2 8C2 7.44792 2.10417 6.93229 2.3125 6.45312C2.52083 5.97396 2.80729 5.54688 3.17188 5.17188C3.53646 4.79688 3.95833 4.51042 4.4375 4.3125C4.91667 4.11458 5.4375 4.01042 6 4C6.55208 4 7.06771 4.10417 7.54688 4.3125C8.02604 4.52083 8.45312 4.80729 8.82812 5.17188C9.20312 5.53646 9.48958 5.95833 9.6875 6.4375C9.88542 6.91667 9.98958 7.4375 10 8C10 8.51042 9.90625 9.00521 9.71875 9.48438C9.53125 9.96354 9.25521 10.3854 8.89062 10.75C9.32812 10.9896 9.71875 11.276 10.0625 11.6094C10.4062 11.9427 10.7188 12.3073 11 12.7031C11.2812 12.2865 11.6042 11.9115 11.9688 11.5781C12.3333 11.2448 12.7292 10.9635 13.1562 10.7344C13.5833 10.5052 14.0365 10.3229 14.5156 10.1875C14.9948 10.0521 15.4896 9.98958 16 10C16.5 10 16.9896 10.0625 17.4688 10.1875C17.9479 10.3125 18.401 10.4896 18.8281 10.7188C19.2552 10.9479 19.6562 11.2344 20.0312 11.5781C20.4062 11.9219 20.7292 12.2969 21 12.7031C21.2708 12.3073 21.5781 11.9427 21.9219 11.6094C22.2656 11.276 22.6615 10.9896 23.1094 10.75C22.7552 10.3854 22.4844 9.96354 22.2969 9.48438C22.1094 9.00521 22.0104 8.51042 22 8C22 7.44792 22.1042 6.93229 22.3125 6.45312C22.5208 5.97396 22.8073 5.54688 23.1719 5.17188C23.5365 4.79688 23.9583 4.51042 24.4375 4.3125C24.9167 4.11458 25.4375 4.01042 26 4C26.5521 4 27.0677 4.10417 27.5469 4.3125C28.026 4.52083 28.4531 4.80729 28.8281 5.17188C29.2031 5.53646 29.4896 5.95833 29.6875 6.4375C29.8854 6.91667 29.9896 7.4375 30 8C30 8.51042 29.9062 9.00521 29.7188 9.48438C29.5312 9.96354 29.2552 10.3854 28.8906 10.75C29.3698 11.0104 29.8021 11.3281 30.1875 11.7031C30.5729 12.0781 30.8958 12.4896 31.1562 12.9375C31.4167 13.3854 31.625 13.875 31.7812 14.4062C31.9375 14.9375 32.0104 15.4688 32 16H30C30 15.4479 29.8958 14.9323 29.6875 14.4531C29.4792 13.974 29.1927 13.5469 28.8281 13.1719C28.4635 12.7969 28.0417 12.5104 27.5625 12.3125C27.0833 12.1146 26.5625 12.0104 26 12C25.4479 12 24.9323 12.1042 24.4531 12.3125C23.974 12.5208 23.5469 12.8073 23.1719 13.1719C22.7969 13.5365 22.5104 13.9583 22.3125 14.4375C22.1146 14.9167 22.0104 15.4375 22 16C22 16.9583 21.7865 17.8594 21.3594 18.7031C20.9323 19.5469 20.3229 20.2552 19.5312 20.8281ZM26 6C25.7188 6 25.4583 6.05208 25.2188 6.15625C24.9792 6.26042 24.7708 6.40104 24.5938 6.57812C24.4167 6.75521 24.2708 6.96875 24.1562 7.21875C24.0417 7.46875 23.9896 7.72917 24 8C24 8.28125 24.0521 8.54167 24.1562 8.78125C24.2604 9.02083 24.401 9.22917 24.5781 9.40625C24.7552 9.58333 24.9688 9.72917 25.2188 9.84375C25.4688 9.95833 25.7292 10.0104 26 10C26.2812 10 26.5417 9.94792 26.7812 9.84375C27.0208 9.73958 27.2292 9.59896 27.4062 9.42188C27.5833 9.24479 27.7292 9.03125 27.8438 8.78125C27.9583 8.53125 28.0104 8.27083 28 8C28 7.71875 27.9479 7.45833 27.8438 7.21875C27.7396 6.97917 27.599 6.77083 27.4219 6.59375C27.2448 6.41667 27.0312 6.27083 26.7812 6.15625C26.5312 6.04167 26.2708 5.98958 26 6ZM6 10C6.28125 10 6.54167 9.94792 6.78125 9.84375C7.02083 9.73958 7.22917 9.59896 7.40625 9.42188C7.58333 9.24479 7.72917 9.03125 7.84375 8.78125C7.95833 8.53125 8.01042 8.27083 8 8C8 7.71875 7.94792 7.45833 7.84375 7.21875C7.73958 6.97917 7.59896 6.77083 7.42188 6.59375C7.24479 6.41667 7.03125 6.27083 6.78125 6.15625C6.53125 6.04167 6.27083 5.98958 6 6C5.71875 6 5.45833 6.05208 5.21875 6.15625C4.97917 6.26042 4.77083 6.40104 4.59375 6.57812C4.41667 6.75521 4.27083 6.96875 4.15625 7.21875C4.04167 7.46875 3.98958 7.72917 4 8C4 8.28125 4.05208 8.54167 4.15625 8.78125C4.26042 9.02083 4.40104 9.22917 4.57812 9.40625C4.75521 9.58333 4.96875 9.72917 5.21875 9.84375C5.46875 9.95833 5.72917 10.0104 6 10ZM16 20C16.5521 20 17.0677 19.8958 17.5469 19.6875C18.026 19.4792 18.4531 19.1927 18.8281 18.8281C19.2031 18.4635 19.4896 18.0417 19.6875 17.5625C19.8854 17.0833 19.9896 16.5625 20 16C20 15.4479 19.8958 14.9323 19.6875 14.4531C19.4792 13.974 19.1927 13.5469 18.8281 13.1719C18.4635 12.7969 18.0417 12.5104 17.5625 12.3125C17.0833 12.1146 16.5625 12.0104 16 12C15.4479 12 14.9323 12.1042 14.4531 12.3125C13.974 12.5208 13.5469 12.8073 13.1719 13.1719C12.7969 13.5365 12.5104 13.9583 12.3125 14.4375C12.1146 14.9167 12.0104 15.4375 12 16C12 16.5521 12.1042 17.0677 12.3125 17.5469C12.5208 18.026 12.8073 18.4531 13.1719 18.8281C13.5365 19.2031 13.9583 19.4896 14.4375 19.6875C14.9167 19.8854 15.4375 19.9896 16 20ZM28 26H32V28H28V32H26V28H22V26H26V22H28V26Z" fill="white"/>
</svg>
