<svg width="36" height="36" viewBox="0 0 36 36" fill="none" xmlns="http://www.w3.org/2000/svg">
<path d="M31.5 10.4062C29.6359 10.404 27.8488 9.66251 26.5306 8.34438C25.2125 7.02625 24.471 5.23912 24.4688 3.375C24.4687 3.15122 24.3799 2.93661 24.2216 2.77838C24.0634 2.62014 23.8488 2.53125 23.625 2.53125H18C17.7762 2.53125 17.5616 2.62014 17.4034 2.77838C17.2451 2.93661 17.1562 3.15122 17.1562 3.375V21.9375C17.1559 22.4911 17.0071 23.0344 16.7252 23.5108C16.4433 23.9873 16.0388 24.3793 15.5538 24.6462C15.0688 24.913 14.5211 25.0448 13.9678 25.0279C13.4145 25.011 12.8759 24.8459 12.4081 24.5498C11.9403 24.2538 11.5606 23.8377 11.3084 23.3449C11.0562 22.8522 10.9409 22.3007 10.9744 21.7482C11.008 21.1956 11.1891 20.6622 11.4991 20.2035C11.809 19.7449 12.2363 19.3777 12.7364 19.1405C12.8807 19.0721 13.0026 18.9642 13.088 18.8292C13.1734 18.6943 13.2187 18.5379 13.2188 18.3783V12.375C13.2186 12.2524 13.1918 12.1312 13.1401 12.02C13.0883 11.9088 13.013 11.8103 12.9193 11.7312C12.8256 11.652 12.7158 11.5943 12.5975 11.562C12.4792 11.5296 12.3553 11.5235 12.2344 11.5439C7.34063 12.4144 3.65625 16.882 3.65625 21.9375C3.65625 24.6974 4.75262 27.3443 6.70417 29.2958C8.65572 31.2474 11.3026 32.3438 14.0625 32.3438C16.8224 32.3438 19.4693 31.2474 21.4208 29.2958C23.3724 27.3443 24.4688 24.6974 24.4688 21.9375V15.8808C26.6142 17.091 29.0368 17.7243 31.5 17.7188C31.7238 17.7188 31.9384 17.6299 32.0966 17.4716C32.2549 17.3134 32.3438 17.0988 32.3438 16.875V11.25C32.3438 11.0262 32.2549 10.8116 32.0966 10.6534C31.9384 10.4951 31.7238 10.4062 31.5 10.4062ZM30.6562 16.0031C28.299 15.8526 26.0322 15.039 24.1172 13.6561C23.991 13.5654 23.8421 13.5114 23.6872 13.5C23.5322 13.4885 23.377 13.5201 23.2388 13.5912C23.1007 13.6623 22.9848 13.7702 22.9041 13.903C22.8233 14.0358 22.7808 14.1883 22.7812 14.3438V21.9375C22.7813 24.2499 21.8627 26.4675 20.2276 28.1026C18.5925 29.7377 16.3749 30.6562 14.0625 30.6562C11.7501 30.6562 9.5325 29.7377 7.89741 28.1026C6.26233 26.4675 5.34375 24.2499 5.34375 21.9375C5.34375 18.0394 7.94109 14.5575 11.5312 13.4466V17.8805C10.8252 18.3211 10.2463 18.9384 9.85197 19.6714C9.45763 20.4043 9.26145 21.2275 9.28283 22.0595C9.30421 22.8916 9.54241 23.7036 9.97387 24.4153C10.4053 25.127 11.0151 25.7138 11.7429 26.1176C12.4707 26.5214 13.2913 26.7282 14.1235 26.7176C14.9558 26.707 15.7708 26.4793 16.488 26.057C17.2053 25.6348 17.7999 25.0327 18.2131 24.3102C18.6262 23.5876 18.8436 22.7698 18.8438 21.9375V4.21875H22.822C23.0199 6.22931 23.9089 8.10903 25.3374 9.53758C26.766 10.9661 28.6457 11.8551 30.6562 12.053V16.0031Z" fill="white"/>
</svg>
