<svg width="36" height="36" viewBox="0 0 36 36" fill="none" xmlns="http://www.w3.org/2000/svg">
<path d="M18.0015 13.5C16.808 13.5 15.6634 13.9741 14.8195 14.818C13.9756 15.6619 13.5015 16.8065 13.5015 18C13.5015 19.1935 13.9756 20.3381 14.8195 21.182C15.6634 22.0259 16.808 22.5 18.0015 22.5C19.195 22.5 20.3396 22.0259 21.1835 21.182C22.0274 20.3381 22.5015 19.1935 22.5015 18C22.5015 16.8065 22.0274 15.6619 21.1835 14.818C20.3396 13.9741 19.195 13.5 18.0015 13.5ZM18.0015 10.5C19.9906 10.5 21.8983 11.2902 23.3048 12.6967C24.7113 14.1032 25.5015 16.0109 25.5015 18C25.5015 19.9891 24.7113 21.8968 23.3048 23.3033C21.8983 24.7098 19.9906 25.5 18.0015 25.5C16.0124 25.5 14.1047 24.7098 12.6982 23.3033C11.2917 21.8968 10.5015 19.9891 10.5015 18C10.5015 16.0109 11.2917 14.1032 12.6982 12.6967C14.1047 11.2902 16.0124 10.5 18.0015 10.5ZM27.7515 10.125C27.7515 10.6223 27.554 11.0992 27.2023 11.4508C26.8507 11.8025 26.3738 12 25.8765 12C25.3792 12 24.9023 11.8025 24.5507 11.4508C24.199 11.0992 24.0015 10.6223 24.0015 10.125C24.0015 9.62772 24.199 9.15081 24.5507 8.79917C24.9023 8.44754 25.3792 8.25 25.8765 8.25C26.3738 8.25 26.8507 8.44754 27.2023 8.79917C27.554 9.15081 27.7515 9.62772 27.7515 10.125ZM18.0015 6C14.2905 6 13.6845 6.0105 11.958 6.087C10.782 6.1425 9.993 6.3 9.261 6.585C8.64875 6.81056 8.09508 7.17095 7.641 7.6395C7.17191 8.09343 6.81099 8.64711 6.585 9.2595C6.3 9.9945 6.1425 10.782 6.0885 11.9565C6.0105 13.6125 6 14.1915 6 18C6 21.7125 6.0105 22.317 6.087 24.0435C6.1425 25.218 6.3 26.0085 6.5835 26.739C6.8385 27.3915 7.1385 27.861 7.6365 28.359C8.142 28.863 8.6115 29.1645 9.2565 29.4135C9.9975 29.7 10.7865 29.859 11.9565 29.913C13.6125 29.991 14.1915 30 18 30C21.7125 30 22.317 29.9895 24.0435 29.913C25.2165 29.8575 26.0055 29.7 26.739 29.4165C27.3513 29.1909 27.9049 28.8305 28.359 28.362C28.8645 27.858 29.166 27.3885 29.415 26.742C29.7 26.004 29.859 25.215 29.913 24.042C29.991 22.3875 30 21.807 30 18C30 14.289 29.9895 13.683 29.913 11.9565C29.8575 10.7835 29.6985 9.9915 29.415 9.2595C29.1894 8.64725 28.829 8.09358 28.3605 7.6395C27.9066 7.17041 27.3529 6.80949 26.7405 6.5835C26.0055 6.2985 25.2165 6.141 24.0435 6.087C22.389 6.009 21.81 6 18 6M18 3C22.0755 3 22.584 3.015 24.1845 3.09C25.7805 3.165 26.8695 3.4155 27.825 3.7875C28.815 4.1685 29.649 4.6845 30.483 5.517C31.246 6.2666 31.8363 7.17371 32.2125 8.175C32.583 9.1305 32.835 10.2195 32.91 11.817C32.9805 13.416 33 13.9245 33 18C33 22.0755 32.985 22.584 32.91 24.183C32.835 25.782 32.583 26.868 32.2125 27.825C31.8363 28.8263 31.246 29.7334 30.483 30.483C29.7334 31.246 28.8263 31.8363 27.825 32.2125C26.8695 32.583 25.7805 32.835 24.1845 32.91C22.584 32.9805 22.0755 33 18 33C13.9245 33 13.416 32.985 11.8155 32.91C10.2195 32.835 9.132 32.583 8.175 32.2125C7.17371 31.8363 6.2666 31.246 5.517 30.483C4.75396 29.7334 4.16372 28.8263 3.7875 27.825C3.4155 26.8695 3.165 25.7805 3.09 24.183C3.018 22.584 3 22.0755 3 18C3 13.9245 3.015 13.416 3.09 11.817C3.165 10.218 3.4155 9.132 3.7875 8.175C4.16372 7.17371 4.75396 6.2666 5.517 5.517C6.2666 4.75396 7.17371 4.16372 8.175 3.7875C9.1305 3.4155 10.218 3.165 11.8155 3.09C13.4175 3.0195 13.926 3 18.0015 3" fill="white"/>
</svg>
