<svg width="36" height="36" viewBox="0 0 36 36" fill="none" xmlns="http://www.w3.org/2000/svg">
<path d="M20.187 32.5441C27.2265 31.4881 32.625 25.4146 32.625 18.0811C32.625 10.0036 26.0775 3.45605 18 3.45605C9.9225 3.45605 3.375 10.0036 3.375 18.0811C3.375 25.4161 8.7735 31.4881 15.813 32.5441V22.3471H12.738C12.5447 22.3471 12.3592 22.2703 12.2225 22.1335C12.0858 21.9968 12.009 21.8114 12.009 21.6181V18.8536C12.009 18.4501 12.336 18.1246 12.738 18.1246H15.813L15.705 15.2101C15.705 13.7971 15.9675 11.5036 17.718 10.2496C18.942 9.37506 19.8525 9.21005 21.3135 9.21005C22.581 9.21005 23.4525 9.33606 24.0285 9.42006L24.3105 9.45755C24.3804 9.46668 24.4445 9.50096 24.4909 9.55398C24.5373 9.607 24.5627 9.67511 24.5625 9.74556V12.8056C24.5625 12.9751 24.42 13.1056 24.255 13.0966H24.198C24.027 13.1026 23.133 13.1401 22.374 13.1401C21.039 13.1401 20.187 13.7491 20.187 15.7726V18.1246H23.475C23.925 18.1246 24.2685 18.5296 24.195 18.9736L23.775 21.7381C23.7466 21.9081 23.6589 22.0627 23.5273 22.1742C23.3958 22.2857 23.2289 22.3469 23.0565 22.3471H20.187V32.5441Z" fill="white"/>
</svg>
